<svg xmlns="http://www.w3.org/2000/svg" viewBox="0 0 900 680" role="img" aria-labelledby="title desc">
  <title id="title">Robotics portfolio illustration</title>
  <desc id="desc">Abstract illustration of wearable robotics, pneumatic systems, prosthetic hand, and gait analysis.</desc>
  <defs>
    <linearGradient id="g1" x1="0" x2="1" y1="0" y2="1">
      <stop offset="0" stop-color="#eaf0ff"/><stop offset="1" stop-color="#ffffff"/>
    </linearGradient>
    <linearGradient id="g2" x1="0" x2="1" y1="0" y2="1">
      <stop offset="0" stop-color="#2354d6"/><stop offset="1" stop-color="#0f766e"/>
    </linearGradient>
  </defs>
  <rect width="900" height="680" rx="38" fill="url(#g1)"/>
  <circle cx="720" cy="120" r="78" fill="#dce8ff"/>
  <circle cx="170" cy="560" r="105" fill="#e7f7f4"/>
  <path d="M115 430 C210 320, 333 365, 448 245 C536 153, 648 148, 770 215" fill="none" stroke="#c3d2f8" stroke-width="24" stroke-linecap="round"/>
  <path d="M125 440 C228 333, 340 385, 463 260 C545 176, 650 170, 762 232" fill="none" stroke="url(#g2)" stroke-width="10" stroke-linecap="round"/>
  <g transform="translate(155 135)">
    <rect x="0" y="0" width="245" height="94" rx="47" fill="#fff" stroke="#cbd8f2" stroke-width="4"/>
    <rect x="24" y="18" width="197" height="58" rx="29" fill="#edf3ff"/>
    <path d="M45 47 H200" stroke="#2354d6" stroke-width="7" stroke-linecap="round" stroke-dasharray="16 14"/>
  </g>
  <g transform="translate(510 318) rotate(-18)">
    <rect x="0" y="0" width="245" height="94" rx="47" fill="#fff" stroke="#cbd8f2" stroke-width="4"/>
    <rect x="24" y="18" width="197" height="58" rx="29" fill="#edf3ff"/>
    <path d="M45 47 H200" stroke="#0f766e" stroke-width="7" stroke-linecap="round" stroke-dasharray="16 14"/>
  </g>
  <g fill="none" stroke="#142033" stroke-width="8" stroke-linecap="round" stroke-linejoin="round" opacity="0.88">
    <path d="M380 280 L442 350 L404 468"/>
    <path d="M442 350 L526 356 L592 440"/>
    <circle cx="380" cy="280" r="16" fill="#ffffff"/>
    <circle cx="442" cy="350" r="16" fill="#ffffff"/>
    <circle cx="404" cy="468" r="16" fill="#ffffff"/>
    <circle cx="592" cy="440" r="16" fill="#ffffff"/>
  </g>
  <g transform="translate(610 118)">
    <path d="M0 118 C5 55, 42 17, 96 0" fill="none" stroke="#142033" stroke-width="12" stroke-linecap="round"/>
    <path d="M38 135 C45 74, 76 43, 120 28" fill="none" stroke="#142033" stroke-width="12" stroke-linecap="round"/>
    <path d="M78 145 C88 95, 112 69, 150 58" fill="none" stroke="#142033" stroke-width="12" stroke-linecap="round"/>
    <rect x="-8" y="145" width="112" height="74" rx="24" fill="#ffffff" stroke="#142033" stroke-width="8"/>
  </g>
  <g transform="translate(104 500)">
    <path d="M0 72 C38 20, 98 6, 154 30 C190 46, 224 46, 255 28" fill="none" stroke="#2354d6" stroke-width="8" stroke-linecap="round"/>
    <path d="M8 94 H280" stroke="#142033" stroke-width="6" stroke-linecap="round"/>
  </g>
</svg>
